Format                                   : Matroska
Format version                           : Version 2
File size                                : 897 MiB
Duration                                 : 1h 51mn
Overall bit rate                         : 1 127 Kbps
Movie name                               : Rakhtbeej (2012).720p.DVDRip By K@rtik 
[EXD Exclusive]
Codec ID                                 : V_MPEG4/ISO/AVC
Duration                                 : 1h 51mn
Bit rate                                 : 742 Kbps
Width                                    : 1 280 pixels
Height                                   : 544 pixels
Display aspect ratio                     : 2.35:1
Frame rate                               : 29.970 fps
Color space                              : YUV
Chroma subsampling                       : 4:2:0
Bit depth                                : 8 bits
Scan type                                : Progressive
Bits/(Pixel*Frame)                       : 0.036
Stream size                              : 573 MiB (64%)
Title                                    : K@rtik
Codec ID                                 : A_AC3
Duration                                 : 1h 51mn
Bit rate mode                            : Constant
Bit rate                                 : 384 Kbps
Channel(s)                               : 6 channels
Channel positions                        : Front: L C R, Side: L R, LFE
Sampling rate                            : 48.0 KHz
Bit depth                                : 16 bits
Stream size                              : 305 MiB (34%)
Title                                    : K@rtik
Language                                 : Hindi 
http://img6.imageshack.us/img6/1746/45602290.png 
http://img268.imageshack.us/img268/442/34194790.png 
http://img213.imageshack.us/img213/3246/93322609.png 
http://img13.imageshack.us/img13/327/39816450.png 
http://img405.imageshack.us/img405/1975/76590139.png 
http://img23.imageshack.us/img23/8976/20272582.png 
http://img152.imageshack.us/img152/4458/25250701.png 
http://img339.imageshack.us/img339/2127/85427801.png 
http://img545.imageshack.us/img545/2198/82057210.png 
http://img651.imageshack.us/img651/6325/75695155.png 
http://img839.imageshack.us/img839/6460/12379280.png 
http://img836.imageshack.us/img836/4072/96053518.png